<svg width="27" height="36" viewBox="0 0 27 36" fill="none" xmlns="http://www.w3.org/2000/svg">
<path d="M12.6109 0.0647357C11.4953 0.28552 10.2185 1.00849 8.99872 2.09951C6.49539 4.34526 3.98862 7.96308 2.30176 11.7617C0.302503 16.2699 -0.413276 20.6341 0.228578 24.4194C0.598197 26.5981 1.41811 28.5627 2.65799 30.2528C3.1956 30.9824 4.12308 31.963 4.82192 32.5387C6.32065 33.7706 8.16542 34.7044 10.0269 35.1691C12.9536 35.902 16.1089 35.6611 18.834 34.5001C23.1922 32.6425 26.1089 28.7066 26.7372 23.8236C26.9288 22.3209 26.9119 20.44 26.6869 18.9072C26.3509 16.6013 25.7224 14.4224 24.7111 12.063C24.3717 11.2764 23.5786 9.67671 23.1452 8.91698C21.1258 5.35932 18.7568 2.54461 16.5356 1.05872C15.783 0.556645 14.8824 0.168389 14.1902 0.0512619C13.7736 -0.0223709 13.0041 -0.0156324 12.6109 0.0647357Z" fill="black"/>
</svg>
