<svg width="18" height="21" viewBox="0 0 18 21" fill="none" xmlns="http://www.w3.org/2000/svg">
<path fill-rule="evenodd" clip-rule="evenodd" d="M9.96301 1.286C9.90274 1.20524 9.82682 1.13745 9.73978 1.08668C9.65274 1.03592 9.55636 1.00321 9.45639 0.990514C9.35643 0.97782 9.25493 0.9854 9.15796 1.0128C9.06099 1.0402 8.97054 1.08686 8.892 1.15C6.97533 2.68882 5.71118 4.89527 5.353 7.327C4.69602 6.85009 4.12029 6.27031 3.648 5.61C3.58383 5.5203 3.50067 5.44586 3.40444 5.39198C3.30821 5.3381 3.20129 5.3061 3.09128 5.29827C2.98127 5.29044 2.87088 5.30697 2.76799 5.34667C2.6651 5.38638 2.57223 5.44829 2.496 5.528C1.17517 6.90942 0.328402 8.67547 0.0783654 10.5703C-0.171672 12.4651 0.188005 14.3904 1.10529 16.0671C2.02258 17.7439 3.44985 19.0851 5.18034 19.8965C6.91084 20.7079 8.85471 20.9473 10.7304 20.58C12.606 20.2128 14.316 19.2579 15.6128 17.8538C16.9095 16.4498 17.7255 14.6693 17.9427 12.7704C18.1599 10.8715 17.7669 8.95281 16.8208 7.29219C15.8746 5.63157 14.4243 4.31528 12.68 3.534C11.6077 3.01257 10.676 2.2417 9.96301 1.286V1.286ZM12.75 13.25C12.7496 13.7924 12.6316 14.3283 12.404 14.8207C12.1764 15.3131 11.8448 15.7502 11.4318 16.102C11.0189 16.4538 10.5346 16.7118 10.0123 16.8582C9.49003 17.0046 8.94219 17.036 8.40659 16.9502C7.871 16.8643 7.3604 16.6633 6.91002 16.361C6.45964 16.0587 6.08021 15.6623 5.79791 15.1991C5.5156 14.7359 5.33714 14.217 5.27483 13.6782C5.21252 13.1393 5.26785 12.5934 5.43701 12.078C6.06501 12.543 6.787 12.888 7.57 13.078C7.78251 11.7093 8.46278 10.4566 9.495 9.533C10.3958 9.65296 11.2225 10.096 11.8212 10.7797C12.4199 11.4634 12.75 12.3412 12.75 13.25V13.25Z" fill="black"/>
</svg>
