<?xml version="1.0" encoding="UTF-8"?> <!-- Generator: Adobe Illustrator 23.0.1, SVG Export Plug-In . SVG Version: 6.00 Build 0) --> <svg xmlns="http://www.w3.org/2000/svg" xmlns:xlink="http://www.w3.org/1999/xlink" id="Warstwa_1" x="0px" y="0px" width="388.2px" height="226px" viewBox="0 0 388.2 226" xml:space="preserve"> <title>Lisner logo</title> <g> <g id="Warstwa_1-2"> <linearGradient id="SVGID_1_" gradientUnits="userSpaceOnUse" x1="99.6026" y1="243.5746" x2="219.7226" y2="77.7046" gradientTransform="matrix(1 0 0 -1 0 225.9528)"> <stop offset="0" style="stop-color:#8DD7F7"></stop> <stop offset="0.34" style="stop-color:#00B5F0"></stop> <stop offset="0.42" style="stop-color:#00A6E2"></stop> <stop offset="0.58" style="stop-color:#0180BD"></stop> <stop offset="0.81" style="stop-color:#024381"></stop> <stop offset="0.92" style="stop-color:#02205F"></stop> </linearGradient> <path fill-rule="evenodd" clip-rule="evenodd" fill="url(#SVGID_1_)" d="M196.5,226h-0.1c-9,0-21-0.6-32.8-1.5 c-10.2-0.8-20.4-2.2-30.4-4.1c-11.1-2.2-22-5.2-32.7-8.7c-13.2-4.4-28.6-10.3-37.3-14.2c-12.2-5.7-24.1-12-35.7-18.9 c-4.4-2.7-9-5.6-13.5-8.8l-1.8-1.2l-1.9-1.3l-1.1-0.8l-0.2-0.2L8.8,166l-0.4-1.3l-0.7-2.2l-0.7-2.1c-9.4-31.3-9.5-64.7-0.2-96 l0.6-2.2L8.2,60l0.4-1.3l0.1-0.3l0.2-0.2l1.1-0.8l1.8-1.3l1.8-1.2c3.6-2.6,7.8-5.3,12.4-8.3c13.7-8.8,29.9-16.4,34.5-18.5 c8.3-3.8,19.6-8,33.6-12.7c10.7-3.5,21.5-6.4,32.6-8.7l4-0.8c7.4-1.5,19.7-3.9,30.5-4.7c14.2-1,27.4-1.4,34.3-1.4h0.5 c7.6,0,24.4,0.7,34.9,2c14,1.8,24.8,3.6,32.8,5.6l6.6,1.7c7.8,2,15.8,4,24.6,7c13.1,4.4,27.6,10.5,36,14.3 c6.4,2.9,16.7,8.8,33.3,19c3.7,2.3,7.1,4.5,10,6.4l1.9,1.2l2,1.3l1.1,0.8l0.3,0.2l0.1,0.3l0.4,1.4l0.7,2.3l0.7,2.3 c9.3,31,9.4,64,0.3,95.1l-0.7,2.2l-0.6,2.1l-0.4,1.3l-0.1,0.3l-0.2,0.2l-1,0.8l-1.7,1.3l-1.9,1.4c-3.3,2.4-6.9,4.8-10.7,7.2 c-10.8,6.9-22.1,13.2-33.7,18.9c-11,5.1-22.2,9.6-33.6,13.5c-8.6,2.9-19.1,5.7-31.2,8.4c-11.2,2.5-22.6,4.3-34,5.3l-3.5,0.3 l-2.3,0.2l-1.9,0.2l-1.7,0.1l-1.1,0.1C210.9,225.3,202.5,226,196.5,226L196.5,226z"></path> <linearGradient id="SVGID_2_" gradientUnits="userSpaceOnUse" x1="194.121" y1="-1.2072" x2="194.121" y2="134.2227" gradientTransform="matrix(1 0 0 -1 0 225.9528)"> <stop offset="0.34" style="stop-color:#00ADEE"></stop> <stop offset="0.48" style="stop-color:#009EE1"></stop> <stop offset="0.75" style="stop-color:#0078BD"></stop> <stop offset="1" style="stop-color:#004F97"></stop> </linearGradient> <path fill-rule="evenodd" clip-rule="evenodd" fill="url(#SVGID_2_)" d="M196.5,221.2h-0.1c-9,0-20.8-0.6-32.4-1.5 c-10.1-0.8-20.1-2.2-30-4.1c-10.9-2.2-21.6-5-32.2-8.5c-13.2-4.4-28.4-10.2-36.9-14.1c-12.1-5.6-23.8-11.8-35.3-18.7 c-4.4-2.6-8.8-5.5-13.2-8.6l-1.8-1.2l-1.8-1.3l-0.7-2.2l-0.6-2.1c-9.1-30.4-9.2-62.7-0.2-93.1l0.6-2.2l0.7-2.2l1.8-1.3l1.8-1.3 c3.5-2.5,7.7-5.3,12.2-8.2c10.9-6.8,22.2-12.9,33.9-18.2c8.2-3.7,19.3-7.9,33.2-12.5c10.5-3.5,21.2-6.3,32-8.5l4-0.8 c7.2-1.4,19.4-3.8,30-4.6c14-1,27.1-1.4,34-1.4h0.5c7.5,0,24.1,0.7,34.3,2c14,1.7,24.5,3.5,32.2,5.5l6.6,1.7 c7.7,1.9,15.6,3.9,24.3,6.9c12.7,4.3,27.1,10.3,35.6,14.2c6.2,2.9,16.4,8.7,32.8,18.8c3.7,2.3,7,4.4,9.9,6.3l1.9,1.3l1.9,1.3 l0.7,2.3l0.7,2.3c9,30.1,9.1,62.1,0.3,92.3l-0.7,2.2l-0.6,2.1l-1.7,1.2l-1.9,1.4c-3,2.1-6.5,4.5-10.4,7.1 c-10.7,6.8-21.7,13-33.1,18.5c-10.8,5-21.9,9.5-33.2,13.3c-8.5,2.9-18.9,5.6-30.8,8.3c-11,2.5-22.2,4.2-33.4,5.2 c-2.6,0.2-5.2,0.4-7.8,0.6l-1.7,0.1l-1.1,0.1C210.5,220.5,202.3,221.2,196.5,221.2L196.5,221.2z"></path> <linearGradient id="SVGID_3_" gradientUnits="userSpaceOnUse" x1="30.7182" y1="135.3888" x2="173.2881" y2="69.0488" gradientTransform="matrix(1 0 0 -1 0 225.9528)"> <stop offset="0" style="stop-color:#00ADEE"></stop> <stop offset="0.1" style="stop-color:#00A7E8"></stop> <stop offset="0.23" style="stop-color:#0095D6"></stop> <stop offset="0.38" style="stop-color:#0077B9"></stop> <stop offset="0.55" style="stop-color:#004F90"></stop> <stop offset="0.57" style="stop-color:#004A8C"></stop> <stop offset="0.98" style="stop-color:#00366F"></stop> </linearGradient> <path fill-rule="evenodd" clip-rule="evenodd" fill="url(#SVGID_3_)" d="M10.2,167.2l1.9,1.3l1.8,1.2c4.5,3.2,9.1,6.1,13.5,8.8 c11.6,6.9,23.5,13.2,35.7,18.9c8.8,4,24.1,9.8,37.3,14.2c10.7,3.5,21.7,6.4,32.7,8.7c10.1,1.9,20.2,3.3,30.4,4.1 c11.8,0.9,23.7,1.5,32.8,1.5h0.1c6,0,14.3-0.6,24.6-1.5l1.1-0.1l1.7-0.1l1.9-0.2l2.3-0.2l3.5-0.3c11.4-1,22.8-2.8,34-5.3 c12.1-2.7,22.6-5.6,31.2-8.4c11.4-3.9,22.7-8.4,33.6-13.5c11.6-5.6,22.8-11.9,33.7-18.9c3.8-2.4,7.4-4.9,10.7-7.2l1.9-1.4l1.7-1.3 l1-0.8l0.2-0.2l-3.9-3l-14.6-11.2L12.8,163.3l-3.8,3l0.2,0.2L10.2,167.2z"></path> <linearGradient id="SVGID_4_" gradientUnits="userSpaceOnUse" x1="502.8698" y1="195.7293" x2="68.9898" y2="180.8993" gradientTransform="matrix(1 0 0 -1 0 225.9528)"> <stop offset="0" style="stop-color:#00ADEE"></stop> <stop offset="0.16" style="stop-color:#009FDF"></stop> <stop offset="0.46" style="stop-color:#007BB7"></stop> <stop offset="0.87" style="stop-color:#004077"></stop> <stop offset="1" style="stop-color:#002D62"></stop> </linearGradient> <path fill-rule="evenodd" clip-rule="evenodd" fill="url(#SVGID_4_)" d="M92.6,52.8l74.4,2.3l198,16l10.5-8.5l-1.9-1.3l-1.9-1.3 c-2.9-1.9-6.2-4.1-9.9-6.3c-16.4-10.1-26.5-15.9-32.8-18.7c-8.5-3.9-22.8-9.9-35.6-14.2c-8.7-2.9-16.6-4.9-24.3-6.9l-6.6-1.7 c-7.7-2-18.3-3.8-32.2-5.5c-10.2-1.3-26.8-2-34.3-2h-0.5c-6.9,0-20,0.4-34,1.4c-10.6,0.8-22.8,3.2-30,4.6l-4,0.8 c-10.8,2.2-21.5,5-32,8.5c-13.8,4.6-25,8.8-33.2,12.5c-11.7,5.3-23,11.4-33.9,18.1c-4.6,3-8.7,5.7-12.2,8.2l-1.8,1.3l-1.8,1.3 l10.6,8.3L92.6,52.8z"></path> <linearGradient id="SVGID_5_" gradientUnits="userSpaceOnUse" x1="85.1341" y1="11.1638" x2="584.0641" y2="237.9238" gradientTransform="matrix(1 0 0 -1 0 225.9528)"> <stop offset="0" style="stop-color:#0073B5"></stop> <stop offset="0.23" style="stop-color:#0065A6"></stop> <stop offset="0.66" style="stop-color:#014080"></stop> <stop offset="1" style="stop-color:#02205F"></stop> </linearGradient> <path fill-rule="evenodd" clip-rule="evenodd" fill="url(#SVGID_5_)" d="M196.5,221.2c5.8,0,14.1-0.7,24.2-1.5l1.1-0.1l1.7-0.1 c2.6-0.2,5.2-0.4,7.8-0.6c11.2-1,22.4-2.7,33.4-5.2c11.9-2.7,22.2-5.5,30.8-8.3c11.3-3.9,22.4-8.3,33.2-13.4 c11.4-5.5,22.5-11.7,33.1-18.5c4-2.5,7.4-4.9,10.4-7.1l1.9-1.4l1.7-1.3l-10.6-8.2l-5.8-1.5l-323-1.5L23.3,155l-10.6,8.3l1.8,1.3 l1.8,1.2c4.4,3.1,8.9,6,13.2,8.6c11.4,6.8,23.2,13.1,35.3,18.7c8.5,3.9,23.7,9.7,36.9,14.1c10.6,3.5,21.3,6.3,32.2,8.5 c9.9,1.9,19.9,3.3,30,4.1C175.6,220.7,187.4,221.2,196.5,221.2L196.5,221.2z"></path> <radialGradient id="SVGID_6_" cx="193.71" cy="256.1875" r="169.75" gradientTransform="matrix(1 0 0 -1.05 0 289.3904)" gradientUnits="userSpaceOnUse"> <stop offset="4.000000e-02" style="stop-color:#00ADEE"></stop> <stop offset="0.38" style="stop-color:#0086CA"></stop> <stop offset="1" style="stop-color:#002D62"></stop> </radialGradient> <path fill-rule="evenodd" clip-rule="evenodd" fill="url(#SVGID_6_)" d="M365.3,155.5c8.1-27.6,8-56.9-0.3-84.4 c-2.8-1.9-6-4-9.6-6.2c-12.5-7.7-24.7-15-31.4-18.1c-8.5-3.9-22.4-9.7-34.4-13.7c-10.3-3.5-19.5-5.6-30.1-8.3 c-7.6-2-18.1-3.7-30.7-5.2c-9.6-1.2-25.8-1.9-32.9-1.9c-7.6,0-20.8,0.4-33.6,1.4c-11.8,0.9-25.9,3.9-32.7,5.2 c-10.3,2.1-20.4,4.8-30.4,8.1c-11.9,3.9-23.6,8.3-32,12.1c-11.1,5-21.9,10.8-32.3,17.3c-4.4,2.8-8.4,5.5-11.8,7.9l0,0 c-8.2,27.8-8.1,57.4,0.2,85.2l0,0c3.7,2.6,8,5.4,12.5,8.2c11,6.6,22.4,12.6,34.1,18c8.5,3.9,23.6,9.6,35.7,13.6 c10,3.3,20.3,6,30.6,8.1c9.5,1.8,19,3.1,28.7,3.9c12.7,1,24,1.4,31.5,1.4s21.1-1.4,34-2.3c10.7-1,21.2-2.6,31.7-5 c8.7-2,19.8-4.7,29.6-8c10.9-3.7,21.6-8,32-12.8c10.9-5.3,21.4-11.2,31.6-17.7c3.8-2.4,7.1-4.7,10-6.7v0.1c0,0,0-0.1,0-0.1l0,0 L365.3,155.5z"></path> <path fill="#02205F" d="M80.8,119.6c-0.3-6.4-0.4-10-0.5-16.3c-0.1-15.2,0.1-23.1,0.9-36.6l0.1-1l-1,0.1c-7.4,0.5-14.8,1-22.2,1.5 l-1,0.1l0.1,1c0.8,14,1.1,22.2,1.2,36.5c0.1,13.1-0.1,20.8-0.7,34.2c0,0.3,0,0.7,0,1l1-0.1c15-1.1,30.1-2.1,45.1-2.9h0.8l0.2-0.7 c1.6-6.1,3.1-12.1,4.7-18.2c0.1-0.4,0.2-0.9,0.3-1.3l-1.4,0.2C100.5,118,90.8,118.9,80.8,119.6z M133.4,110.5 c0-10.2,0.1-16,0.8-25.8c0-0.3,0-0.7,0.1-1h-1.1c-7,0.3-14,0.5-21,0.9h-1c0,0.3,0,0.7,0.1,1c0.7,9.8,1,15.5,1,25.8 c0,9.2-0.2,14.7-0.8,24.3c0,0.3,0,0.7-0.1,1h1c7-0.3,13.9-0.6,20.9-0.9h1l-0.1-1C133.8,125,133.5,119.5,133.4,110.5z M122.9,58.5 c-8.9,0.4-12.8,6.2-12.8,11.7s4,11,12.9,10.6c7.4-0.3,12.5-5.1,12.5-11.7S130.2,58.2,122.9,58.5L122.9,58.5z M170.3,101.6 l-5.4-1.4c-5.4-1.4-5.4-2-5.4-2.6c0-1.5,4.2-1.8,6-1.8c5.5-0.1,9.5,0.5,13,1.9l1,0.4l0.3-1c1.1-4,2.3-7.9,3.4-11.9 c0.1-0.3,0.2-0.6,0.2-0.9l-0.9-0.3c-6.3-1.8-12.8-2.6-19.3-2.3c-13.7,0.3-23.9,8.1-23.9,18.1c0,8.5,4.2,13.3,13.7,15.8l5.4,1.4 c6.1,1.6,6.1,2.4,6.1,3s0,2-6.8,2.2c-5.3,0.1-10.5-0.9-15.3-2.9l-1.1-0.5c-0.1,0.4-0.2,0.8-0.3,1.1c-1.1,3.9-2.1,7.8-3.2,11.8 l-0.2,0.8l0.8,0.3c6.5,2.6,12.8,3.5,22.7,3.3c14.1-0.3,23.5-7.4,23.5-17.8C184.6,109.6,180.1,104.3,170.3,101.6L170.3,101.6z M242.1,117.2c0-3.4,0.2-6.1,0.3-8.8s0.3-5.1,0.3-8.2c0-10.6-7.3-18.7-17-18.8c-6.1-0.2-11.8,2.6-15.5,7.4 c-0.2-1.8-0.4-3.7-0.6-5.5l-0.1-0.8h-0.9c-6.6,0-13.2,0-19.9,0h-1c0,0.3,0,0.7,0.1,1c0.7,9.9,0.9,15.7,0.9,25.8 c0,9.3-0.3,14.8-0.9,24.2l-0.1,1h1c7,0,14,0,20.9,0h1l-0.1-1c-0.4-6.8-0.5-10.9-0.5-18.3c0-4.4,0.1-10,0.5-14.4 c1.5-2.1,2.9-2.9,5-2.9s3.9,2.2,4.4,5.9c0.4,3.7,0.5,7.4,0.4,11.1c0,0.8,0,1.7,0,2.5c0,6.5-0.2,10.1-0.7,16.1c0,0.3-0.1,0.7-0.1,1 h1.1c7,0.1,13.9,0.2,20.9,0.3h1.1c0-0.4-0.1-0.7-0.1-1C242.1,128.3,242,122.8,242.1,117.2L242.1,117.2z M276.5,82.7 c-17.1-0.7-29.6,10.5-29.6,26.2c0,16.8,11.5,27.5,30,28.2c10.7,0.4,18.2-1.2,24.9-5.4l0.5-0.4c0-0.2-0.1-0.4-0.1-0.6 c-0.9-4-1.9-8-2.8-12c-0.1-0.4-0.2-0.9-0.3-1.3L298,118c-4.7,2.8-10.3,3.9-17.4,3.6s-10.7-2.5-12-7.3c11,0.4,22,0.9,33,1.4h0.9 l0.1-0.9c0.1-1.7,0.1-2.9,0.1-4.1C302.7,94.2,292.7,83.4,276.5,82.7L276.5,82.7z M268.4,101.9c0.7-4.5,3-6.7,6.7-6.5 c4.6,0.2,6,4.1,6.4,7C277.2,102.2,272.8,102,268.4,101.9L268.4,101.9z M350.1,88.4c-2.1-1.2-4.4-1.6-7.4-1.9 c-6-0.4-10.5,2.7-13.7,9.4c-0.3-2.8-0.6-5.6-0.9-8.4c0-0.3,0-0.6-0.1-0.9l-0.9-0.1c-6.4-0.4-12.7-0.8-19.1-1.2l-1-0.1 c0,0.3,0,0.7,0.1,1c0.6,9.9,0.8,15.7,0.8,25.8c0,9.1-0.3,14.6-1,24.2c0,0.3,0,0.7-0.1,1l1,0.1c7,0.4,13.9,0.8,20.9,1.3l1,0.1 c0-0.3,0-0.7,0-1c-0.4-6.7-0.4-12.2-0.4-16.7c0-3.1,0.2-6.2,0.5-10.2c1.4-1.8,3.4-2.6,6.1-2.4c2.3,0.1,4.6,0.7,6.7,1.8l1,0.5 c0.1-0.3,0.2-0.7,0.3-1c2.2-6.8,4.4-13.6,6.6-20.3l0.2-0.7L350.1,88.4z"></path> <path fill="#FFFFFF" d="M99.8,132.1h-0.6c-15.1,0.8-30.1,1.8-45.1,3l-0.8,0.1v-0.8c0.5-13.8,0.8-21.2,0.7-34.2 c-0.1-14.2-0.4-22.4-1.2-36.5c0-0.2,0-0.5,0-0.8h0.8c7.4-0.6,14.8-1.1,22.2-1.6h0.8c0,0.2,0,0.5,0,0.8c-0.8,13.7-1,21.5-0.9,36.7 c0,6.3,0.2,10,0.5,16.5c10.1-0.7,19.9-1.6,27.7-2.7l1-0.1c-0.1,0.3-0.2,0.7-0.3,1c-1.6,6.1-3.1,12.2-4.6,18.2L99.8,132.1z"></path> <path fill="#FFFFFF" d="M129.8,130.7H129c-7,0.3-13.9,0.6-20.9,0.9h-0.8c0-0.3,0-0.5,0-0.8c0.6-9.7,0.8-15.2,0.8-24.3 c0-10.2-0.3-16-1-25.8l-0.1-0.8h0.8c7-0.4,14-0.7,21-0.9h0.8l-0.1,0.8c-0.7,9.9-0.8,15.7-0.8,25.8c0,9.7,0.4,15.6,1,24.2 L129.8,130.7z M118.5,75.9c-8.7,0.4-12.6-4.9-12.6-10.4s3.8-11.1,12.5-11.5c7.2-0.3,12.3,4,12.3,10.4S125.7,75.6,118.5,75.9z"></path> <path fill="#FFFFFF" d="M156.7,131c-9.9,0.2-16.2-0.7-22.6-3.2l-0.6-0.2l0.2-0.6c1.1-3.9,2.1-7.8,3.2-11.8 c0.1-0.3,0.1-0.6,0.2-0.8l0.8,0.4c4.9,2,10.2,3,15.5,2.9c7-0.2,7-1.8,7-2.4c0-0.9-0.5-1.7-6.3-3.2l-5.4-1.4 c-9.3-2.4-13.5-7.2-13.5-15.6c0-9.8,10.1-17.6,23.7-17.9c6.5-0.3,13,0.5,19.2,2.3l0.7,0.2l-0.2,0.7c-1.1,4-2.3,7.9-3.4,11.9 c-0.1,0.3-0.1,0.5-0.2,0.8l-0.8-0.3c-3.5-1.4-7.6-2-13.1-1.9c-2.9,0.1-6.2,0.5-6.2,2.1c0,0.8,0.4,1.5,5.6,2.8l5.4,1.4 c9.7,2.7,14.2,7.9,14.2,16.4C180,123.7,170.6,130.7,156.7,131z"></path> <path fill="#FFFFFF" d="M238.1,129.7h-0.8c-7-0.1-14-0.2-20.9-0.3h-0.8c0-0.2,0.1-0.5,0.1-0.8c0.5-6,0.7-9.6,0.7-16.1 c0-0.8,0-1.7,0-2.6c0.1-3.7,0-7.4-0.4-11.1c-0.5-3.9-2.2-6.1-4.6-6.1c-2.2,0-3.7,0.8-5.3,3.1c-0.4,4.4-0.5,10-0.5,14.5 c0,7.4,0.1,11.5,0.5,18.3c0,0.2,0,0.5,0,0.8h-0.8c-7,0-14,0-20.9,0.1h-0.8c0-0.2,0-0.5,0-0.8c0.6-9.5,0.9-15,0.9-24.2 c0-10-0.2-15.8-0.9-25.8c0-0.2,0-0.5-0.1-0.8h0.8c6.6-0.1,13.2-0.1,19.9-0.1h0.6c0,0.2,0,0.4,0.1,0.6c0.2,2,0.5,4.1,0.7,6.1 c3.6-5,9.5-8,15.7-7.8c9.6,0.1,16.7,8.1,16.7,18.5c0,3.1-0.1,5.6-0.3,8.2s-0.3,5.4-0.3,8.8c-0.1,5.6,0.1,11.2,0.6,16.8 C238.1,129.2,238.1,129.5,238.1,129.7z"></path> <path fill="#FFFFFF" d="M272.5,131.8c-18.4-0.7-29.8-11.2-29.8-27.9c0-15.6,12.4-26.6,29.4-26c16.1,0.6,26,11.3,25.9,27.7 c0,1.2,0,2.4-0.1,4.1c0,0.2,0,0.4,0,0.7h-0.7c-11.1-0.6-22.2-1-33.3-1.4c1.3,5.2,5,7.5,12.3,7.8s12.7-0.9,17.5-3.7l0.9-0.5 c0.1,0.3,0.1,0.7,0.2,1c0.9,4,1.8,8,2.8,12l0.1,0.5l-0.4,0.2C290.5,130.6,283.1,132.2,272.5,131.8z M263.7,97.1 c4.5,0.1,9.1,0.3,13.7,0.5c-0.4-3-1.8-7.3-6.7-7.5S264.2,93.6,263.7,97.1L263.7,97.1z"></path> <path fill="#FFFFFF" d="M325.1,133.4h-0.8c-7-0.5-13.9-0.9-20.9-1.2h-0.8c0-0.2,0-0.5,0-0.8c0.6-8.6,1-14.5,1-24.2 c0-10.1-0.1-15.9-0.8-25.9c0-0.2,0-0.5,0-0.8h0.8c6.4,0.3,12.8,0.7,19.1,1.1h0.7l0.1,0.6c0.3,3.1,0.6,6.2,0.9,9.4 c3.1-7.2,7.8-10.6,13.9-10.2c3.1,0.2,5.3,0.6,7.3,1.8l0.5,0.3l-0.2,0.5c-2.2,6.8-4.4,13.6-6.6,20.3c-0.1,0.2-0.2,0.5-0.2,0.8 l-0.7-0.4c-2.1-1.1-4.4-1.7-6.8-1.8c-2.4-0.3-4.9,0.6-6.4,2.6c-0.4,4-0.5,7.2-0.5,10.3c0,4.2,0,9.8,0.4,16.7 C325,132.9,325.1,133.2,325.1,133.4z"></path> <path fill="#02205F" d="M75.7,62c-0.8,14.2-1,22.3-0.9,36.7c0,6.6,0.2,10.2,0.5,17.2c10.5-0.7,20.5-1.7,28.5-2.8 c-1.6,6.1-3.1,12.2-4.6,18.2c-15.1,0.8-30.1,1.8-45.1,3c0.5-13.2,0.8-20.9,0.7-34.2c-0.1-14.4-0.4-22.5-1.2-36.6 C61,63,68.4,62.5,75.7,62 M77.3,60.5l-1.6,0.1c-7.4,0.5-14.8,1-22.2,1.6L52,62.3c0,0.5,0,1,0.1,1.5c0.8,14.1,1.1,22.3,1.2,36.5 c0.1,13.6-0.2,21.5-0.7,34.2l-0.1,1.5l1.5-0.1c15-1.2,30.1-2.2,45.1-3l1.1-0.1l0.3-1.1l4.7-18.2l0.5-2l-2.1,0.3 c-7.6,1-17.1,2-27,2.7c-0.3-6.1-0.4-9.7-0.4-15.8c-0.1-15.2,0.1-23,0.9-36.6C77.2,61.5,77.3,61,77.3,60.5L77.3,60.5z"></path> <path fill="#02205F" d="M118.4,54.8c7.4-0.3,11.6,4.2,11.6,9.7c0,5.5-4.1,10.4-11.5,10.7c-7.7,0.3-11.9-4.1-11.9-9.7 S110.7,55.1,118.4,54.8 M128.8,79.9c-0.7,10-0.8,15.8-0.8,25.9c0,9.4,0.4,15,1,24.2c-7,0.3-13.9,0.6-20.9,0.9 c0.6-9.3,0.8-14.9,0.8-24.3c0-10.1-0.3-15.9-1-25.8C114.9,80.5,121.9,80.2,128.8,79.9 M118.4,53.3c-7.8,0.3-13.3,5.4-13.3,12.2 c0,5.8,4.2,11.5,13.4,11.1c7.7-0.3,13-5.3,13-12.2S126.1,53,118.4,53.3z M130.4,78.4l-1.6,0.1c-7,0.3-14,0.6-21,0.9l-1.6,0.1 l0.1,1.5c0.8,9.8,1,15.6,1,25.7c0,9-0.2,14.6-0.8,24.2l-0.1,1.5l1.6-0.1c7-0.3,13.9-0.6,20.9-0.9l1.6-0.1c0-0.5-0.1-1-0.1-1.5 c-0.7-9.6-1-15.1-1-24.2c0-10.1,0.1-15.9,0.8-25.8C130.3,79.4,130.4,78.9,130.4,78.4L130.4,78.4z"></path> <path fill="#02205F" d="M158.9,77.8c6.4-0.3,12.8,0.5,19,2.2c-1.1,4-2.3,8-3.4,11.9c-4.1-1.6-8.4-2-13.4-1.9c-5.7,0.1-7,1.4-7,2.8 s0.8,2.1,6.1,3.5l5.4,1.4c9.1,2.5,13.7,7.2,13.7,15.7c0,10.3-9.7,16.6-22.5,16.9c-10.1,0.2-16.3-0.7-22.4-3.2 c1.1-3.9,2.1-7.8,3.2-11.8c5,2.1,10.4,3.1,15.8,3c5.6-0.1,7.8-1.2,7.8-3.1c0-1.5-0.9-2.4-6.8-3.9l-5.4-1.4 c-8.2-2.1-13-6.2-13-14.9C136,86,145.1,78.1,158.9,77.8 M158.9,76.4c-14,0.3-24.4,8.4-24.4,18.6c0,8.6,4.5,13.7,14.1,16.2l5.4,1.4 c5.7,1.5,5.8,2.2,5.8,2.6c0,1.3-4,1.6-6.3,1.7c-5.2,0.1-10.4-0.9-15.2-2.9l-1.6-0.7c-0.2,0.6-0.3,1.1-0.5,1.7 c-1.1,3.9-2.1,7.8-3.2,11.8c-0.1,0.4-0.2,0.8-0.3,1.2l1.1,0.5c6.5,2.6,13,3.5,22.9,3.3c14.4-0.3,24-7.6,24-18.3 c0-8.8-4.7-14.3-14.7-17l-5.4-1.3c-5-1.3-5-1.8-5-2.2s1.1-1.3,5.5-1.4c5.4-0.1,9.4,0.5,12.8,1.8l1.5,0.6c0.1-0.5,0.3-1,0.4-1.6 c1.1-4,2.3-7.9,3.4-11.9c0.1-0.4,0.2-0.9,0.4-1.3l-1.3-0.4C172.1,76.9,165.5,76.1,158.9,76.4L158.9,76.4z"></path> <path fill="#02205F" d="M221.4,77.4c9.1,0.1,16,7.7,16,17.8c0,6.2-0.6,10.3-0.6,17c-0.1,5.6,0.1,11.2,0.6,16.8 c-7-0.1-13.9-0.2-20.9-0.3c0.5-6.2,0.7-9.8,0.7-16.2c0-5.7,0.1-9.7-0.4-13.7c-0.6-4.7-2.8-6.7-5.4-6.7s-4.3,1-6,3.5 c-0.4,4-0.5,9.2-0.5,14.7c0,7.1,0.1,11.2,0.5,18.4c-7,0-14,0-20.9,0.1c0.6-9.3,0.9-14.9,0.9-24.3c0-10.1-0.2-15.9-0.9-25.9 c6.6,0,13.2-0.1,19.9-0.1c0.3,2.7,0.6,5.3,0.9,8C209.1,80.4,214.7,77.4,221.4,77.4 M221.3,76c-5.8-0.2-11.4,2.3-15.2,6.7 c-0.2-1.4-0.3-2.9-0.5-4.4l-0.1-1.3h-1.3c-6.6,0-13.2,0-19.9,0.1h-1.6c0,0.5,0.1,1,0.1,1.5c0.7,10,0.9,15.7,0.9,25.8 c0,9.2-0.3,14.7-0.9,24.2c0,0.5-0.1,1-0.1,1.5h1.6c7-0.1,13.9-0.1,20.9-0.1h1.6l-0.1-1.5c-0.4-6.8-0.5-10.8-0.5-18.3 c0-4.4,0.1-9.9,0.5-14.2c1.5-2.2,2.9-2.6,4.6-2.6c2.8,0,3.6,3.4,3.9,5.5c0.4,3.7,0.5,7.3,0.4,11c0,0.8,0,1.7,0,2.6 c0,6.5-0.2,10-0.7,16.1c0,0.5-0.1,1-0.1,1.5h1.6c7,0.1,14,0.2,20.9,0.3h1.6c-0.1-0.5-0.1-1-0.1-1.6c-0.5-5.5-0.7-11.1-0.6-16.7 c0-3.4,0.2-6.1,0.3-8.7s0.3-5.1,0.3-8.2C238.9,84.4,231.4,76.1,221.3,76L221.3,76z"></path> <path fill="#02205F" d="M272.1,78.7c14.8,0.6,25.3,10.3,25.2,27c0,1.2,0,2.4-0.1,4c-11.4-0.6-22.8-1-34.2-1.4 c1.1,5.9,4.9,8.9,13.2,9.2c7.4,0.3,13-0.9,17.9-3.8c0.9,4,1.8,8,2.8,12c-6.8,4.3-14.1,5.7-24.4,5.3c-17.2-0.6-29.1-10.2-29-27.1 C243.5,88.9,255.6,78,272.1,78.7 M262.9,97.8c5.1,0.2,10.2,0.3,15.3,0.6c-0.4-5.2-2.9-8.8-7.5-9C265.8,89.1,263.5,92.7,262.9,97.8 M272.1,77.2C254.7,76.6,242,88,242,103.9c0,17.1,11.7,27.9,30.5,28.6c10.8,0.4,18.4-1.2,25.2-5.6l0.8-0.5c-0.1-0.3-0.1-0.6-0.2-1 c-0.9-4-1.9-8-2.8-12c-0.1-0.7-0.3-1.3-0.5-2l-1.8,1c-4.6,2.7-10.1,3.8-17.1,3.6c-6.4-0.3-9.9-2.2-11.4-6.3 c10.8,0.4,21.5,0.8,32.3,1.3l1.4,0.1c0-0.4,0.1-0.9,0.1-1.3c0.1-1.7,0.1-2.9,0.1-4.1C298.8,89.1,288.4,77.8,272.1,77.2L272.1,77.2 z M264.6,96.4c0.8-3.8,2.8-5.7,6.1-5.6c3.9,0.2,5.3,3.4,5.8,6C272.6,96.6,268.6,96.5,264.6,96.4L264.6,96.4z"></path> <path fill="#02205F" d="M338.3,82.3c2.9,0.2,5,0.6,7,1.7c-2.2,6.8-4.4,13.5-6.6,20.3c-2.2-1.1-4.6-1.7-7.1-1.9 c-2.7-0.4-5.5,0.8-7.1,3c-0.3,3.4-0.5,6.9-0.6,10.5c0,5.1,0,10.5,0.4,16.7c-7-0.5-13.9-0.9-20.9-1.2c0.6-9.2,1-14.8,1-24.2 c0.1-10.1-0.1-15.9-0.8-25.9c6.4,0.3,12.7,0.7,19.1,1.1c0.4,4.2,0.8,8.3,1.2,12.5C327.2,85.4,332.2,81.8,338.3,82.3 M338.3,80.8 c-5.7-0.4-10.2,2.4-13.4,8.2c-0.2-2.2-0.4-4.5-0.7-6.7c0-0.4-0.1-0.9-0.1-1.3l-1.3-0.1c-6.4-0.4-12.7-0.8-19.1-1.1l-1.6-0.1 c0,0.5,0.1,1,0.1,1.5c0.6,9.9,0.8,15.7,0.8,25.8c0,9-0.3,14.5-1,24.1c0,0.5-0.1,1-0.1,1.5l1.6,0.1c7,0.4,13.9,0.8,20.9,1.2 l1.6,0.1l-0.1-1.5c-0.4-6.8-0.4-12.5-0.4-16.6c0-3.1,0.2-6.2,0.5-10c1.4-1.7,3.5-2.5,5.7-2.2c2.3,0.1,4.5,0.7,6.5,1.7l1.5,0.7 l0.5-1.5c2.2-6.8,4.4-13.6,6.6-20.3l0.4-1.1l-1-0.7C343.8,81.5,341.4,81.1,338.3,80.8L338.3,80.8z"></path> <path fill="#F6921E" d="M190.6,162.2c27.1,11.2,88.7,13.2,106.9,2.2c11.8-7.2,1.9-19.3-13.1-9.8 C263.6,167.6,228.5,167.7,190.6,162.2z"></path> <linearGradient id="SVGID_7_" gradientUnits="userSpaceOnUse" x1="74.1112" y1="92.3869" x2="540.2512" y2="-41.0031" gradientTransform="matrix(1 0 0 -1 0 225.9528)"> <stop offset="3.000000e-02" style="stop-color:#E6BB70"></stop> <stop offset="4.000000e-02" style="stop-color:#EDCD8F"></stop> <stop offset="5.000000e-02" style="stop-color:#F4DEAC"></stop> <stop offset="6.000000e-02" style="stop-color:#F9EBC2"></stop> <stop offset="7.000000e-02" style="stop-color:#FCF4D2"></stop> <stop offset="8.000000e-02" style="stop-color:#FEF9DB"></stop> <stop offset="0.1" style="stop-color:#FFFBDE"></stop> <stop offset="0.19" style="stop-color:#D1AA67"></stop> <stop offset="0.25" style="stop-color:#E1C27C"></stop> <stop offset="0.28" style="stop-color:#E8CD85"></stop> <stop offset="0.29" style="stop-color:#EBD492"></stop> <stop offset="0.31" style="stop-color:#F3E2AE"></stop> <stop offset="0.33" style="stop-color:#F8EDC3"></stop> <stop offset="0.36" style="stop-color:#FCF5D2"></stop> <stop offset="0.38" style="stop-color:#FEFADB"></stop> <stop offset="0.43" style="stop-color:#FFFBDE"></stop> <stop offset="0.48" style="stop-color:#FEF9DB"></stop> <stop offset="0.51" style="stop-color:#FCF4D2"></stop> <stop offset="0.54" style="stop-color:#F9EBC3"></stop> <stop offset="0.56" style="stop-color:#F4DFAE"></stop> <stop offset="0.58" style="stop-color:#EECF92"></stop> <stop offset="0.61" style="stop-color:#E6BB71"></stop> <stop offset="0.61" style="stop-color:#E6BB70"></stop> <stop offset="0.7" style="stop-color:#D1AA67"></stop> <stop offset="0.8" style="stop-color:#E6BB70"></stop> <stop offset="0.9" style="stop-color:#FFFBDE"></stop> <stop offset="1" style="stop-color:#E6BB70"></stop> </linearGradient> <path fill-rule="evenodd" clip-rule="evenodd" fill="url(#SVGID_7_)" d="M23.3,155C23.3,155,23.3,155.1,23.3,155 C23.3,155.1,23.3,155,23.3,155z M32.6,153c2.2,1.4,4.4,2.8,6.5,4.1c10.8,6.4,22,12.3,33.4,17.6c7.7,3.5,22.5,9.1,35,13.4 c9.8,3.2,19.7,5.9,29.8,7.9c9.3,1.8,18.6,3.1,28,3.8c11.1,0.9,22.4,1.4,31.1,1.4c5.3,0,13.8-0.7,22.9-1.4l10.6-0.8 c10.3-0.9,20.6-2.5,30.8-4.8c11.3-2.6,21-5.2,29-7.9c10.7-3.6,21.1-7.8,31.3-12.6c4.6-2.1,11.3-5.7,18.1-9.6 C182.9,210.3,156.2,128.7,32.6,153z"></path> </g> </g> </svg> 