<svg id="visual" viewBox="0 0 900 300" width="900" height="300" xmlns="http://www.w3.org/2000/svg" xmlns:xlink="http://www.w3.org/1999/xlink" version="1.1"><rect x="0" y="0" width="900" height="300" fill="#DFFFBB"></rect><defs><linearGradient id="grad1_0" x1="66.7%" y1="0%" x2="100%" y2="100%"><stop offset="-10%" stop-color="#dfffbb" stop-opacity="1"></stop><stop offset="110%" stop-color="#dfffbb" stop-opacity="1"></stop></linearGradient></defs><defs><linearGradient id="grad2_0" x1="0%" y1="0%" x2="33.3%" y2="100%"><stop offset="-10%" stop-color="#dfffbb" stop-opacity="1"></stop><stop offset="110%" stop-color="#dfffbb" stop-opacity="1"></stop></linearGradient></defs><g transform="translate(900, 0)"><path d="M0 225C-38.5 218 -77 211 -111.5 193.1C-146 175.2 -176.6 146.5 -194.9 112.5C-213.1 78.5 -219.1 39.3 -225 0L0 0Z" fill="#80CC28"></path></g><g transform="translate(0, 300)"><path d="M0 -225C35.6 -212.9 71.1 -200.8 106 -183.6C140.9 -166.4 175.1 -144 194.9 -112.5C214.6 -81 219.8 -40.5 225 0L0 0Z" fill="#80CC28"></path></g></svg>