<svg id="visual" viewBox="0 0 680 900" width="680" height="900" xmlns="http://www.w3.org/2000/svg" xmlns:xlink="http://www.w3.org/1999/xlink" version="1.1"><rect x="0" y="0" width="680" height="900" fill="#DFFFBB"></rect><defs><linearGradient id="grad1_0" x1="0%" y1="0%" x2="100%" y2="100%"><stop offset="30%" stop-color="#dfffbb" stop-opacity="1"></stop><stop offset="70%" stop-color="#dfffbb" stop-opacity="1"></stop></linearGradient></defs><defs><linearGradient id="grad2_0" x1="0%" y1="0%" x2="100%" y2="100%"><stop offset="30%" stop-color="#dfffbb" stop-opacity="1"></stop><stop offset="70%" stop-color="#dfffbb" stop-opacity="1"></stop></linearGradient></defs><g transform="translate(680, 0)"><path d="M0 423C-76.4 413.3 -152.7 403.6 -211.5 366.3C-270.3 329 -311.5 264.2 -343.8 198.5C-376.1 132.8 -399.6 66.4 -423 0L0 0Z" fill="#80CC28"></path></g><g transform="translate(0, 900)"><path d="M0 -423C76.7 -413.5 153.4 -404 211.5 -366.3C269.6 -328.6 309.1 -262.8 341.2 -197C373.4 -131.2 398.2 -65.6 423 0L0 0Z" fill="#80CC28"></path></g></svg>