<svg id="visual" viewBox="0 0 800 600" width="800" height="600" xmlns="http://www.w3.org/2000/svg" xmlns:xlink="http://www.w3.org/1999/xlink" version="1.1"><rect x="0" y="0" width="800" height="600" fill="#DFFFBB"></rect><defs><linearGradient id="grad1_0" x1="25%" y1="0%" x2="100%" y2="100%"><stop offset="23.333333333333336%" stop-color="#dfffbb" stop-opacity="1"></stop><stop offset="76.66666666666666%" stop-color="#dfffbb" stop-opacity="1"></stop></linearGradient></defs><defs><linearGradient id="grad2_0" x1="0%" y1="0%" x2="75%" y2="100%"><stop offset="23.333333333333336%" stop-color="#dfffbb" stop-opacity="1"></stop><stop offset="76.66666666666666%" stop-color="#dfffbb" stop-opacity="1"></stop></linearGradient></defs><g transform="translate(800, 0)"><path d="M0 375C-58.4 353.3 -116.7 331.6 -175 303.1C-233.3 274.6 -291.4 239.2 -324.8 187.5C-358.1 135.8 -366.5 67.9 -375 0L0 0Z" fill="#80CC28"></path></g><g transform="translate(0, 600)"><path d="M0 -375C61 -357.9 122.1 -340.9 180 -311.8C237.9 -282.7 292.8 -241.5 324.8 -187.5C356.7 -133.5 365.9 -66.8 375 0L0 0Z" fill="#80CC28"></path></g></svg>